<mxfile modified="2024-02-28T03:03:31.647Z" host="app.diagrams.net" agent="Mozilla/5.0 (Windows NT 10.0; Win64; x64; rv:123.0) Gecko/20100101 Firefox/123.0" etag="TJa9r-EPpqWIN1YpfJ2t" version="23.1.7" type="github">
  <diagram id="eIo0H9kK7ql945uVP1NC" name="Page-1">
    <mxGraphModel dx="1419" dy="794" grid="1" gridSize="10" guides="1" tooltips="1" connect="1" arrows="1" fold="1" page="1" pageScale="1" pageWidth="827" pageHeight="1169" math="0" shadow="0">
      <root>
        <mxCell id="0" />
        <mxCell id="1" parent="0" />
        <mxCell id="T21aQVliIUyU_0U-5JRh-42" value="" style="aspect=fixed;perimeter=ellipsePerimeter;html=1;align=center;shadow=0;dashed=0;fontColor=#4277BB;labelBackgroundColor=#ffffff;fontSize=12;spacingTop=0;image;image=img/lib/ibm/blockchain/key_management.svg;rounded=0;" parent="1" vertex="1">
          <mxGeometry x="1247.5" y="339.5" width="22.8" height="22.8" as="geometry" />
        </mxCell>
        <mxCell id="T21aQVliIUyU_0U-5JRh-39" value="" style="aspect=fixed;perimeter=ellipsePerimeter;html=1;align=center;shadow=0;dashed=0;fontColor=#4277BB;labelBackgroundColor=#ffffff;fontSize=12;spacingTop=0;image;image=img/lib/ibm/blockchain/key_management.svg;rounded=0;" parent="1" vertex="1">
          <mxGeometry x="1093.5" y="261.5" width="22.8" height="22.8" as="geometry" />
        </mxCell>
        <mxCell id="T21aQVliIUyU_0U-5JRh-40" value="" style="aspect=fixed;perimeter=ellipsePerimeter;html=1;align=center;shadow=0;dashed=0;fontColor=#4277BB;labelBackgroundColor=#ffffff;fontSize=12;spacingTop=0;image;image=img/lib/ibm/blockchain/key_management.svg;rounded=0;" parent="1" vertex="1">
          <mxGeometry x="1247.5" y="160" width="22.8" height="22.8" as="geometry" />
        </mxCell>
        <mxCell id="T21aQVliIUyU_0U-5JRh-41" value="" style="aspect=fixed;perimeter=ellipsePerimeter;html=1;align=center;shadow=0;dashed=0;fontColor=#4277BB;labelBackgroundColor=#ffffff;fontSize=12;spacingTop=0;image;image=img/lib/ibm/blockchain/key_management.svg;rounded=0;" parent="1" vertex="1">
          <mxGeometry x="1342.5" y="255" width="22.8" height="22.8" as="geometry" />
        </mxCell>
        <mxCell id="T21aQVliIUyU_0U-5JRh-43" value="" style="ellipse;whiteSpace=wrap;html=1;aspect=fixed;rounded=0;fontSize=7;align=center;fillColor=none;strokeWidth=7;strokeColor=#6E6F72;spacingTop=0;" parent="1" vertex="1">
          <mxGeometry x="1137.5" y="201.5" width="190" height="190" as="geometry" />
        </mxCell>
        <mxCell id="T21aQVliIUyU_0U-5JRh-1" value="WALLET APP" style="aspect=fixed;perimeter=ellipsePerimeter;html=1;align=center;shadow=0;dashed=0;fontColor=#4277BB;labelBackgroundColor=#ffffff;fontSize=12;spacingTop=0;image;image=img/lib/ibm/blockchain/wallet.svg;" parent="1" vertex="1">
          <mxGeometry x="1202.5" y="40" width="60" height="60" as="geometry" />
        </mxCell>
        <mxCell id="T21aQVliIUyU_0U-5JRh-18" value="OWN NODE" style="aspect=fixed;perimeter=ellipsePerimeter;html=1;align=center;shadow=0;dashed=0;fontColor=#4277BB;labelBackgroundColor=#ffffff;fontSize=12;spacingTop=0;image;image=img/lib/ibm/blockchain/node.svg;" parent="1" vertex="1">
          <mxGeometry x="1202.5" y="171.5" width="60" height="60" as="geometry" />
        </mxCell>
        <mxCell id="T21aQVliIUyU_0U-5JRh-19" value="NODE I" style="aspect=fixed;perimeter=ellipsePerimeter;html=1;align=center;shadow=0;dashed=0;fontColor=#4277BB;labelBackgroundColor=#ffffff;fontSize=12;spacingTop=0;image;image=img/lib/ibm/blockchain/node.svg;" parent="1" vertex="1">
          <mxGeometry x="1107.5" y="266.5" width="60" height="60" as="geometry" />
        </mxCell>
        <mxCell id="T21aQVliIUyU_0U-5JRh-20" value="NODE K" style="aspect=fixed;perimeter=ellipsePerimeter;html=1;align=center;shadow=0;dashed=0;fontColor=#4277BB;labelBackgroundColor=#ffffff;fontSize=12;spacingTop=0;image;image=img/lib/ibm/blockchain/node.svg;" parent="1" vertex="1">
          <mxGeometry x="1298" y="266.50000000000006" width="60" height="60" as="geometry" />
        </mxCell>
        <mxCell id="T21aQVliIUyU_0U-5JRh-21" value="NODE N" style="aspect=fixed;perimeter=ellipsePerimeter;html=1;align=center;shadow=0;dashed=0;fontColor=#4277BB;labelBackgroundColor=#ffffff;fontSize=12;spacingTop=0;image;image=img/lib/ibm/blockchain/node.svg;" parent="1" vertex="1">
          <mxGeometry x="1202.5" y="351.5" width="60" height="60" as="geometry" />
        </mxCell>
        <mxCell id="T21aQVliIUyU_0U-5JRh-61" value="" style="edgeStyle=orthogonalEdgeStyle;fontSize=12;html=1;endArrow=classicThin;endFill=1;rounded=0;strokeColor=#0076BE;strokeWidth=2;startArrow=classicThin;startFill=1;entryX=0.5;entryY=1;entryDx=0;entryDy=0;" parent="1" source="T21aQVliIUyU_0U-5JRh-18" target="T21aQVliIUyU_0U-5JRh-1" edge="1">
          <mxGeometry width="60" height="60" relative="1" as="geometry">
            <mxPoint x="951.5" y="603" as="sourcePoint" />
            <mxPoint x="1199" y="223" as="targetPoint" />
          </mxGeometry>
        </mxCell>
        <mxCell id="T21aQVliIUyU_0U-5JRh-62" value="" style="edgeStyle=orthogonalEdgeStyle;fontSize=12;html=1;endArrow=classicThin;endFill=1;rounded=0;strokeColor=#0076BE;strokeWidth=2;startArrow=classicThin;startFill=1;" parent="1" source="T21aQVliIUyU_0U-5JRh-19" target="T21aQVliIUyU_0U-5JRh-15" edge="1">
          <mxGeometry width="60" height="60" relative="1" as="geometry">
            <mxPoint x="961.5" y="613" as="sourcePoint" />
            <mxPoint x="961.5" y="503" as="targetPoint" />
          </mxGeometry>
        </mxCell>
        <mxCell id="T21aQVliIUyU_0U-5JRh-37" value="SMART CONTRACTS" style="swimlane;fontStyle=0;horizontal=1;collapsible=0;startSize=28;swimlaneLine=0;swimlaneFillColor=none;fillColor=none;rounded=0;whiteSpace=wrap;html=1;absoluteArcSize=1;arcSize=12;strokeColor=#417CB9;fontColor=#417CB9;verticalAlign=top;align=center;spacingLeft=5;dashed=0;strokeWidth=2;" parent="1" vertex="1">
          <mxGeometry x="551.5" y="163" width="470" height="540" as="geometry" />
        </mxCell>
        <mxCell id="T21aQVliIUyU_0U-5JRh-48" value="" style="edgeStyle=orthogonalEdgeStyle;fontSize=12;html=1;endArrow=classicThin;endFill=1;rounded=0;strokeColor=#0076BE;strokeWidth=2;startArrow=classicThin;startFill=1;entryX=0;entryY=0.5;entryDx=0;entryDy=0;" parent="T21aQVliIUyU_0U-5JRh-37" target="T21aQVliIUyU_0U-5JRh-11" edge="1">
          <mxGeometry width="60" height="60" relative="1" as="geometry">
            <mxPoint x="30" y="180" as="sourcePoint" />
            <mxPoint x="115" y="60" as="targetPoint" />
            <Array as="points">
              <mxPoint x="55" y="180" />
              <mxPoint x="55" y="280" />
            </Array>
          </mxGeometry>
        </mxCell>
        <mxCell id="T21aQVliIUyU_0U-5JRh-50" value="" style="edgeStyle=orthogonalEdgeStyle;fontSize=12;html=1;endArrow=classicThin;endFill=1;rounded=0;strokeColor=#0076BE;strokeWidth=2;startArrow=classicThin;startFill=1;entryX=0;entryY=0.75;entryDx=0;entryDy=0;" parent="T21aQVliIUyU_0U-5JRh-37" target="T21aQVliIUyU_0U-5JRh-11" edge="1">
          <mxGeometry width="60" height="60" relative="1" as="geometry">
            <mxPoint x="30" y="425" as="sourcePoint" />
            <mxPoint x="-20" y="435" as="targetPoint" />
            <Array as="points">
              <mxPoint x="55" y="425" />
              <mxPoint x="55" y="293" />
            </Array>
          </mxGeometry>
        </mxCell>
        <mxCell id="T21aQVliIUyU_0U-5JRh-52" value="" style="edgeStyle=orthogonalEdgeStyle;fontSize=12;html=1;endArrow=classicThin;endFill=1;rounded=0;strokeColor=#0076BE;strokeWidth=2;" parent="T21aQVliIUyU_0U-5JRh-37" source="T21aQVliIUyU_0U-5JRh-9" target="T21aQVliIUyU_0U-5JRh-11" edge="1">
          <mxGeometry width="60" height="60" relative="1" as="geometry">
            <mxPoint x="35" y="110" as="sourcePoint" />
            <mxPoint x="95" y="50" as="targetPoint" />
          </mxGeometry>
        </mxCell>
        <mxCell id="T21aQVliIUyU_0U-5JRh-53" value="" style="edgeStyle=orthogonalEdgeStyle;fontSize=12;html=1;endArrow=classicThin;endFill=1;rounded=0;strokeColor=#0076BE;strokeWidth=2;" parent="T21aQVliIUyU_0U-5JRh-37" source="T21aQVliIUyU_0U-5JRh-13" target="T21aQVliIUyU_0U-5JRh-10" edge="1">
          <mxGeometry width="60" height="60" relative="1" as="geometry">
            <mxPoint x="129" y="190" as="sourcePoint" />
            <mxPoint x="129" y="260" as="targetPoint" />
          </mxGeometry>
        </mxCell>
        <mxCell id="T21aQVliIUyU_0U-5JRh-54" value="" style="edgeStyle=orthogonalEdgeStyle;fontSize=12;html=1;endArrow=classicThin;endFill=1;rounded=0;strokeColor=#0076BE;strokeWidth=2;" parent="T21aQVliIUyU_0U-5JRh-37" source="T21aQVliIUyU_0U-5JRh-14" target="T21aQVliIUyU_0U-5JRh-15" edge="1">
          <mxGeometry width="60" height="60" relative="1" as="geometry">
            <mxPoint x="139" y="200" as="sourcePoint" />
            <mxPoint x="139" y="270" as="targetPoint" />
          </mxGeometry>
        </mxCell>
        <mxCell id="T21aQVliIUyU_0U-5JRh-56" value="" style="edgeStyle=orthogonalEdgeStyle;fontSize=12;html=1;endArrow=classicThin;endFill=1;rounded=0;strokeColor=#0076BE;strokeWidth=2;" parent="T21aQVliIUyU_0U-5JRh-37" source="T21aQVliIUyU_0U-5JRh-12" target="T21aQVliIUyU_0U-5JRh-16" edge="1">
          <mxGeometry width="60" height="60" relative="1" as="geometry">
            <mxPoint x="129" y="190" as="sourcePoint" />
            <mxPoint x="129" y="260" as="targetPoint" />
          </mxGeometry>
        </mxCell>
        <mxCell id="T21aQVliIUyU_0U-5JRh-57" value="" style="edgeStyle=orthogonalEdgeStyle;fontSize=12;html=1;endArrow=classicThin;endFill=1;rounded=0;strokeColor=#0076BE;strokeWidth=2;startArrow=classicThin;startFill=1;" parent="T21aQVliIUyU_0U-5JRh-37" source="T21aQVliIUyU_0U-5JRh-16" target="T21aQVliIUyU_0U-5JRh-15" edge="1">
          <mxGeometry width="60" height="60" relative="1" as="geometry">
            <mxPoint x="129" y="430" as="sourcePoint" />
            <mxPoint x="129" y="320" as="targetPoint" />
          </mxGeometry>
        </mxCell>
        <mxCell id="T21aQVliIUyU_0U-5JRh-58" value="" style="edgeStyle=orthogonalEdgeStyle;fontSize=12;html=1;endArrow=classicThin;endFill=1;rounded=0;strokeColor=#0076BE;strokeWidth=2;startArrow=classicThin;startFill=1;" parent="T21aQVliIUyU_0U-5JRh-37" source="T21aQVliIUyU_0U-5JRh-10" target="T21aQVliIUyU_0U-5JRh-11" edge="1">
          <mxGeometry width="60" height="60" relative="1" as="geometry">
            <mxPoint x="139" y="440" as="sourcePoint" />
            <mxPoint x="139" y="330" as="targetPoint" />
          </mxGeometry>
        </mxCell>
        <mxCell id="T21aQVliIUyU_0U-5JRh-59" value="" style="edgeStyle=orthogonalEdgeStyle;fontSize=12;html=1;endArrow=classicThin;endFill=1;rounded=0;strokeColor=#0076BE;strokeWidth=2;" parent="T21aQVliIUyU_0U-5JRh-37" source="T21aQVliIUyU_0U-5JRh-10" target="T21aQVliIUyU_0U-5JRh-15" edge="1">
          <mxGeometry width="60" height="60" relative="1" as="geometry">
            <mxPoint x="260" y="145" as="sourcePoint" />
            <mxPoint x="260" y="260" as="targetPoint" />
          </mxGeometry>
        </mxCell>
        <mxCell id="T21aQVliIUyU_0U-5JRh-9" value="IDENTITY &amp;amp;&lt;br&gt;ACCESS&lt;br&gt;MANAGEMENT&lt;br&gt;" style="aspect=fixed;perimeter=ellipsePerimeter;html=1;align=center;shadow=0;dashed=0;fontColor=#4277BB;labelBackgroundColor=#ffffff;fontSize=12;spacingTop=0;image;image=img/lib/ibm/blockchain/identity_access_manager.svg;" parent="T21aQVliIUyU_0U-5JRh-37" vertex="1">
          <mxGeometry x="89" y="120" width="60" height="60" as="geometry" />
        </mxCell>
        <mxCell id="T21aQVliIUyU_0U-5JRh-13" value="EVENT&lt;br&gt;LISTENER&lt;br&gt;" style="aspect=fixed;perimeter=ellipsePerimeter;html=1;align=center;shadow=0;dashed=0;fontColor=#4277BB;labelBackgroundColor=#ffffff;fontSize=12;spacingTop=0;image;image=img/lib/ibm/blockchain/event_listener.svg;" parent="T21aQVliIUyU_0U-5JRh-37" vertex="1">
          <mxGeometry x="220" y="75" width="60" height="60" as="geometry" />
        </mxCell>
        <mxCell id="T21aQVliIUyU_0U-5JRh-11" value="APPLICATION&lt;br&gt;LOGIC&lt;br&gt;" style="aspect=fixed;perimeter=ellipsePerimeter;html=1;align=center;shadow=0;dashed=0;fontColor=#4277BB;labelBackgroundColor=#ffffff;fontSize=12;spacingTop=0;image;image=img/lib/ibm/applications/application_logic.svg;" parent="T21aQVliIUyU_0U-5JRh-37" vertex="1">
          <mxGeometry x="89" y="250" width="60" height="60" as="geometry" />
        </mxCell>
        <mxCell id="T21aQVliIUyU_0U-5JRh-10" value="MESSAGE&lt;br&gt;BUS&lt;br&gt;" style="aspect=fixed;perimeter=ellipsePerimeter;html=1;align=center;shadow=0;dashed=0;fontColor=#4277BB;labelBackgroundColor=#ffffff;fontSize=12;spacingTop=0;image;image=img/lib/ibm/blockchain/message_bus.svg;" parent="T21aQVliIUyU_0U-5JRh-37" vertex="1">
          <mxGeometry x="220" y="250" width="60" height="60" as="geometry" />
        </mxCell>
        <mxCell id="T21aQVliIUyU_0U-5JRh-12" value="ANALYTICS" style="aspect=fixed;perimeter=ellipsePerimeter;html=1;align=center;shadow=0;dashed=0;fontColor=#4277BB;labelBackgroundColor=#ffffff;fontSize=12;spacingTop=0;image;image=img/lib/ibm/analytics/analytics.svg;" parent="T21aQVliIUyU_0U-5JRh-37" vertex="1">
          <mxGeometry x="89" y="420" width="60" height="60" as="geometry" />
        </mxCell>
        <mxCell id="T21aQVliIUyU_0U-5JRh-14" value="WALLET&lt;br&gt;" style="aspect=fixed;perimeter=ellipsePerimeter;html=1;align=center;shadow=0;dashed=0;fontColor=#4277BB;labelBackgroundColor=#ffffff;fontSize=12;spacingTop=0;image;image=img/lib/ibm/blockchain/wallet.svg;" parent="T21aQVliIUyU_0U-5JRh-37" vertex="1">
          <mxGeometry x="350" y="110" width="60" height="60" as="geometry" />
        </mxCell>
        <mxCell id="T21aQVliIUyU_0U-5JRh-15" value="TRANSACTION&lt;br&gt;MANAGER" style="aspect=fixed;perimeter=ellipsePerimeter;html=1;align=center;shadow=0;dashed=0;fontColor=#4277BB;labelBackgroundColor=#ffffff;fontSize=12;spacingTop=0;image;image=img/lib/ibm/blockchain/transaction_manager.svg;" parent="T21aQVliIUyU_0U-5JRh-37" vertex="1">
          <mxGeometry x="350" y="250" width="60" height="60" as="geometry" />
        </mxCell>
        <mxCell id="T21aQVliIUyU_0U-5JRh-16" value="DATA STORE&lt;br&gt;OFF CHAIN&lt;br&gt;" style="aspect=fixed;perimeter=ellipsePerimeter;html=1;align=center;shadow=0;dashed=0;fontColor=#4277BB;labelBackgroundColor=#ffffff;fontSize=12;spacingTop=0;image;image=img/lib/ibm/data/data_services.svg;" parent="T21aQVliIUyU_0U-5JRh-37" vertex="1">
          <mxGeometry x="350" y="420" width="60" height="60" as="geometry" />
        </mxCell>
        <mxCell id="T21aQVliIUyU_0U-5JRh-69" value="4" style="ellipse;whiteSpace=wrap;html=1;aspect=fixed;rounded=0;strokeColor=none;strokeWidth=7;fillColor=#939598;fontSize=14;align=center;fontColor=#FFFFFF;" parent="T21aQVliIUyU_0U-5JRh-37" vertex="1">
          <mxGeometry x="44.5" y="217.5" width="21" height="21" as="geometry" />
        </mxCell>
        <mxCell id="T21aQVliIUyU_0U-5JRh-70" value="5" style="ellipse;whiteSpace=wrap;html=1;aspect=fixed;rounded=0;strokeColor=none;strokeWidth=7;fillColor=#939598;fontSize=14;align=center;fontColor=#FFFFFF;" parent="T21aQVliIUyU_0U-5JRh-37" vertex="1">
          <mxGeometry x="128" y="229" width="21" height="21" as="geometry" />
        </mxCell>
        <mxCell id="T21aQVliIUyU_0U-5JRh-71" value="6" style="ellipse;whiteSpace=wrap;html=1;aspect=fixed;rounded=0;strokeColor=none;strokeWidth=7;fillColor=#939598;fontSize=14;align=center;fontColor=#FFFFFF;" parent="T21aQVliIUyU_0U-5JRh-37" vertex="1">
          <mxGeometry x="175" y="269.5" width="21" height="21" as="geometry" />
        </mxCell>
        <mxCell id="T21aQVliIUyU_0U-5JRh-72" value="15" style="ellipse;whiteSpace=wrap;html=1;aspect=fixed;rounded=0;strokeColor=none;strokeWidth=7;fillColor=#939598;fontSize=14;align=center;fontColor=#FFFFFF;" parent="T21aQVliIUyU_0U-5JRh-37" vertex="1">
          <mxGeometry x="73" y="247" width="21" height="21" as="geometry" />
        </mxCell>
        <mxCell id="T21aQVliIUyU_0U-5JRh-73" value="7" style="ellipse;whiteSpace=wrap;html=1;aspect=fixed;rounded=0;strokeColor=none;strokeWidth=7;fillColor=#939598;fontSize=14;align=center;fontColor=#FFFFFF;" parent="T21aQVliIUyU_0U-5JRh-37" vertex="1">
          <mxGeometry x="305" y="270" width="21" height="21" as="geometry" />
        </mxCell>
        <mxCell id="T21aQVliIUyU_0U-5JRh-74" value="8" style="ellipse;whiteSpace=wrap;html=1;aspect=fixed;rounded=0;strokeColor=none;strokeWidth=7;fillColor=#939598;fontSize=14;align=center;fontColor=#FFFFFF;" parent="T21aQVliIUyU_0U-5JRh-37" vertex="1">
          <mxGeometry x="410" y="251" width="21" height="21" as="geometry" />
        </mxCell>
        <mxCell id="T21aQVliIUyU_0U-5JRh-75" value="9" style="ellipse;whiteSpace=wrap;html=1;aspect=fixed;rounded=0;strokeColor=none;strokeWidth=7;fillColor=#939598;fontSize=14;align=center;fontColor=#FFFFFF;" parent="T21aQVliIUyU_0U-5JRh-37" vertex="1">
          <mxGeometry x="389" y="364.5" width="21" height="21" as="geometry" />
        </mxCell>
        <mxCell id="T21aQVliIUyU_0U-5JRh-76" value="10" style="ellipse;whiteSpace=wrap;html=1;aspect=fixed;rounded=0;strokeColor=none;strokeWidth=7;fillColor=#939598;fontSize=14;align=center;fontColor=#FFFFFF;" parent="T21aQVliIUyU_0U-5JRh-37" vertex="1">
          <mxGeometry x="411" y="290" width="21" height="21" as="geometry" />
        </mxCell>
        <mxCell id="T21aQVliIUyU_0U-5JRh-80" value="14" style="ellipse;whiteSpace=wrap;html=1;aspect=fixed;rounded=0;strokeColor=none;strokeWidth=7;fillColor=#939598;fontSize=14;align=center;fontColor=#FFFFFF;" parent="T21aQVliIUyU_0U-5JRh-37" vertex="1">
          <mxGeometry x="239.5" y="189" width="21" height="21" as="geometry" />
        </mxCell>
        <mxCell id="T21aQVliIUyU_0U-5JRh-81" value="19" style="ellipse;whiteSpace=wrap;html=1;aspect=fixed;rounded=0;strokeColor=none;strokeWidth=7;fillColor=#939598;fontSize=14;align=center;fontColor=#FFFFFF;" parent="T21aQVliIUyU_0U-5JRh-37" vertex="1">
          <mxGeometry x="235" y="440" width="21" height="21" as="geometry" />
        </mxCell>
        <mxCell id="T21aQVliIUyU_0U-5JRh-83" value="18" style="ellipse;whiteSpace=wrap;html=1;aspect=fixed;rounded=0;strokeColor=none;strokeWidth=7;fillColor=#939598;fontSize=14;align=center;fontColor=#FFFFFF;" parent="T21aQVliIUyU_0U-5JRh-37" vertex="1">
          <mxGeometry x="108.5" y="360" width="21" height="21" as="geometry" />
        </mxCell>
        <mxCell id="T21aQVliIUyU_0U-5JRh-84" value="16" style="ellipse;whiteSpace=wrap;html=1;aspect=fixed;rounded=0;strokeColor=none;strokeWidth=7;fillColor=#939598;fontSize=14;align=center;fontColor=#FFFFFF;" parent="T21aQVliIUyU_0U-5JRh-37" vertex="1">
          <mxGeometry x="44.5" y="339" width="21" height="21" as="geometry" />
        </mxCell>
        <mxCell id="T21aQVliIUyU_0U-5JRh-38" value="" style="group;fontSize=7;" parent="1" vertex="1" connectable="0">
          <mxGeometry x="914" y="713" width="300" height="160" as="geometry" />
        </mxCell>
        <mxCell id="T21aQVliIUyU_0U-5JRh-27" value="CONSENSUS" style="aspect=fixed;perimeter=ellipsePerimeter;html=1;align=center;shadow=0;dashed=0;fontColor=#4277BB;labelBackgroundColor=#ffffff;fontSize=7;spacingTop=0;image;image=img/lib/ibm/blockchain/consensus.svg;" parent="T21aQVliIUyU_0U-5JRh-38" vertex="1">
          <mxGeometry x="94.73684210526316" y="13.91304347826087" width="41.73913043478261" height="41.73913043478261" as="geometry" />
        </mxCell>
        <mxCell id="T21aQVliIUyU_0U-5JRh-28" value="LEDGER" style="aspect=fixed;perimeter=ellipsePerimeter;html=1;align=center;shadow=0;dashed=0;fontColor=#4277BB;labelBackgroundColor=#ffffff;fontSize=7;spacingTop=0;image;image=img/lib/ibm/blockchain/ledger.svg;" parent="T21aQVliIUyU_0U-5JRh-38" vertex="1">
          <mxGeometry x="165.78947368421052" y="13.91304347826087" width="41.73913043478261" height="41.73913043478261" as="geometry" />
        </mxCell>
        <mxCell id="T21aQVliIUyU_0U-5JRh-29" value="SMART&lt;br style=&quot;font-size: 7px;&quot;&gt;CONTRACT&lt;br style=&quot;font-size: 7px;&quot;&gt;" style="aspect=fixed;perimeter=ellipsePerimeter;html=1;align=center;shadow=0;dashed=0;fontColor=#4277BB;labelBackgroundColor=#ffffff;fontSize=7;spacingTop=0;image;image=img/lib/ibm/blockchain/smart_contract.svg;" parent="T21aQVliIUyU_0U-5JRh-38" vertex="1">
          <mxGeometry x="236.8421052631579" y="13.91304347826087" width="41.73913043478261" height="41.73913043478261" as="geometry" />
        </mxCell>
        <mxCell id="T21aQVliIUyU_0U-5JRh-30" value="EVENTS" style="aspect=fixed;perimeter=ellipsePerimeter;html=1;align=center;shadow=0;dashed=0;fontColor=#4277BB;labelBackgroundColor=#ffffff;fontSize=7;spacingTop=0;image;image=img/lib/ibm/blockchain/event.svg;" parent="T21aQVliIUyU_0U-5JRh-38" vertex="1">
          <mxGeometry x="23.68421052631579" y="90.43478260869566" width="41.73913043478261" height="41.73913043478261" as="geometry" />
        </mxCell>
        <mxCell id="T21aQVliIUyU_0U-5JRh-31" value="COMMUNICATION" style="aspect=fixed;perimeter=ellipsePerimeter;html=1;align=center;shadow=0;dashed=0;fontColor=#4277BB;labelBackgroundColor=#ffffff;fontSize=7;spacingTop=0;image;image=img/lib/ibm/blockchain/communication.svg;" parent="T21aQVliIUyU_0U-5JRh-38" vertex="1">
          <mxGeometry x="94.73684210526316" y="90.43478260869566" width="41.73913043478261" height="41.73913043478261" as="geometry" />
        </mxCell>
        <mxCell id="T21aQVliIUyU_0U-5JRh-32" value="DATA STORE" style="aspect=fixed;perimeter=ellipsePerimeter;html=1;align=center;shadow=0;dashed=0;fontColor=#4277BB;labelBackgroundColor=#ffffff;fontSize=7;spacingTop=0;image;image=img/lib/ibm/data/data_services.svg;" parent="T21aQVliIUyU_0U-5JRh-38" vertex="1">
          <mxGeometry x="165.78947368421052" y="90.43478260869566" width="41.73913043478261" height="41.73913043478261" as="geometry" />
        </mxCell>
        <mxCell id="T21aQVliIUyU_0U-5JRh-33" value="API" style="aspect=fixed;perimeter=ellipsePerimeter;html=1;align=center;shadow=0;dashed=0;fontColor=#4277BB;labelBackgroundColor=#ffffff;fontSize=7;spacingTop=0;image;image=img/lib/ibm/applications/application_logic.svg;" parent="T21aQVliIUyU_0U-5JRh-38" vertex="1">
          <mxGeometry x="236.8421052631579" y="90.43478260869566" width="41.73913043478261" height="41.73913043478261" as="geometry" />
        </mxCell>
        <mxCell id="T21aQVliIUyU_0U-5JRh-77" value="11" style="ellipse;whiteSpace=wrap;html=1;aspect=fixed;rounded=0;strokeColor=none;strokeWidth=7;fillColor=#939598;fontSize=14;align=center;fontColor=#FFFFFF;" parent="1" vertex="1">
          <mxGeometry x="1053.5" y="452" width="21" height="21" as="geometry" />
        </mxCell>
        <mxCell id="T21aQVliIUyU_0U-5JRh-86" value="Application" style="rounded=0;html=1;shadow=0;labelBackgroundColor=none;strokeColor=none;strokeWidth=2;fillColor=#EBC01A;gradientColor=none;fontSize=12;fontColor=#4277BB;align=left;labelPosition=right;verticalLabelPosition=middle;verticalAlign=middle;spacingLeft=5;" parent="1" vertex="1">
          <mxGeometry x="216.5" y="763.5" width="20" height="10" as="geometry" />
        </mxCell>
        <mxCell id="T21aQVliIUyU_0U-5JRh-87" value="Infrastructure services" style="rounded=0;html=1;shadow=0;labelBackgroundColor=none;strokeColor=none;strokeWidth=2;fillColor=#8DC642;gradientColor=none;fontSize=12;fontColor=#4277BB;align=left;labelPosition=right;verticalLabelPosition=middle;verticalAlign=middle;spacingLeft=5;" parent="1" vertex="1">
          <mxGeometry x="216.5" y="783.5" width="20" height="10" as="geometry" />
        </mxCell>
        <mxCell id="T21aQVliIUyU_0U-5JRh-88" value="Management" style="rounded=0;html=1;shadow=0;labelBackgroundColor=none;strokeColor=none;strokeWidth=2;fillColor=#0DB39D;gradientColor=none;fontSize=12;fontColor=#4277BB;align=left;labelPosition=right;verticalLabelPosition=middle;verticalAlign=middle;spacingLeft=5;" parent="1" vertex="1">
          <mxGeometry x="216.5" y="803.5" width="20" height="10" as="geometry" />
        </mxCell>
        <mxCell id="T21aQVliIUyU_0U-5JRh-89" value="Data oriented services" style="rounded=0;html=1;shadow=0;labelBackgroundColor=none;strokeColor=none;strokeWidth=2;fillColor=#335D81;gradientColor=none;fontSize=12;fontColor=#4277BB;align=left;labelPosition=right;verticalLabelPosition=middle;verticalAlign=middle;spacingLeft=5;" parent="1" vertex="1">
          <mxGeometry x="216.5" y="823.5" width="20" height="10" as="geometry" />
        </mxCell>
        <mxCell id="T21aQVliIUyU_0U-5JRh-90" value="DevOps" style="rounded=0;html=1;shadow=0;labelBackgroundColor=none;strokeColor=none;strokeWidth=2;fillColor=#F3713C;gradientColor=none;fontSize=12;fontColor=#4277BB;align=left;labelPosition=right;verticalLabelPosition=middle;verticalAlign=middle;spacingLeft=5;" parent="1" vertex="1">
          <mxGeometry x="216.5" y="843.5" width="20" height="10" as="geometry" />
        </mxCell>
        <mxCell id="T21aQVliIUyU_0U-5JRh-91" value="Blockchain services" style="rounded=0;html=1;shadow=0;labelBackgroundColor=none;strokeColor=none;strokeWidth=2;fillColor=#A72870;gradientColor=none;fontSize=12;fontColor=#4277BB;align=left;labelPosition=right;verticalLabelPosition=middle;verticalAlign=middle;spacingLeft=5;" parent="1" vertex="1">
          <mxGeometry x="216.5" y="883.5" width="20" height="10" as="geometry" />
        </mxCell>
        <mxCell id="T21aQVliIUyU_0U-5JRh-92" value="Security" style="rounded=0;html=1;shadow=0;labelBackgroundColor=none;strokeColor=none;strokeWidth=2;fillColor=#E52134;gradientColor=none;fontSize=12;fontColor=#4277BB;align=left;labelPosition=right;verticalLabelPosition=middle;verticalAlign=middle;spacingLeft=5;" parent="1" vertex="1">
          <mxGeometry x="216.5" y="863.5" width="20" height="10" as="geometry" />
        </mxCell>
        <mxCell id="T21aQVliIUyU_0U-5JRh-93" value="LEGEND" style="text;html=1;align=left;verticalAlign=middle;fontColor=#4277BB;shadow=0;dashed=0;strokeColor=none;fillColor=none;labelBackgroundColor=none;fontStyle=1;fontSize=14;spacingLeft=0;" parent="1" vertex="1">
          <mxGeometry x="216.5" y="713" width="150" height="20" as="geometry" />
        </mxCell>
        <mxCell id="T21aQVliIUyU_0U-5JRh-94" value="Actors" style="rounded=0;html=1;shadow=0;labelBackgroundColor=none;strokeColor=none;strokeWidth=2;fillColor=#C59435;gradientColor=none;fontSize=12;fontColor=#4277BB;align=left;labelPosition=right;verticalLabelPosition=middle;verticalAlign=middle;spacingLeft=5;" parent="1" vertex="1">
          <mxGeometry x="216.5" y="743" width="20" height="10" as="geometry" />
        </mxCell>
        <mxCell id="T21aQVliIUyU_0U-5JRh-95" value="" style="ellipse;whiteSpace=wrap;html=1;aspect=fixed;rounded=0;strokeColor=none;strokeWidth=7;fillColor=#A71E6C;fontSize=14;fontColor=#FFFFFF;align=center;" parent="1" vertex="1">
          <mxGeometry x="1270" y="391.5" width="8" height="8" as="geometry" />
        </mxCell>
        <mxCell id="T21aQVliIUyU_0U-5JRh-96" value="" style="ellipse;whiteSpace=wrap;html=1;aspect=fixed;rounded=0;strokeColor=none;strokeWidth=7;fillColor=#A71E6C;fontSize=14;fontColor=#FFFFFF;align=center;" parent="1" vertex="1">
          <mxGeometry x="1291" y="382" width="8" height="8" as="geometry" />
        </mxCell>
        <mxCell id="T21aQVliIUyU_0U-5JRh-97" value="" style="ellipse;whiteSpace=wrap;html=1;aspect=fixed;rounded=0;strokeColor=none;strokeWidth=7;fillColor=#A71E6C;fontSize=14;fontColor=#FFFFFF;align=center;" parent="1" vertex="1">
          <mxGeometry x="1322" y="351" width="8" height="8" as="geometry" />
        </mxCell>
        <mxCell id="T21aQVliIUyU_0U-5JRh-98" value="" style="ellipse;whiteSpace=wrap;html=1;aspect=fixed;rounded=0;strokeColor=none;strokeWidth=7;fillColor=#A71E6C;fontSize=14;fontColor=#FFFFFF;align=center;" parent="1" vertex="1">
          <mxGeometry x="1309" y="367.5" width="8" height="8" as="geometry" />
        </mxCell>
        <mxCell id="T21aQVliIUyU_0U-5JRh-99" value="" style="ellipse;whiteSpace=wrap;html=1;aspect=fixed;rounded=0;strokeColor=none;strokeWidth=7;fillColor=#A71E6C;fontSize=14;fontColor=#FFFFFF;align=center;" parent="1" vertex="1">
          <mxGeometry x="1190" y="392.5" width="8" height="8" as="geometry" />
        </mxCell>
        <mxCell id="T21aQVliIUyU_0U-5JRh-100" value="" style="ellipse;whiteSpace=wrap;html=1;aspect=fixed;rounded=0;strokeColor=none;strokeWidth=7;fillColor=#A71E6C;fontSize=14;fontColor=#FFFFFF;align=center;" parent="1" vertex="1">
          <mxGeometry x="1168" y="383.5" width="8" height="8" as="geometry" />
        </mxCell>
        <mxCell id="T21aQVliIUyU_0U-5JRh-101" value="" style="ellipse;whiteSpace=wrap;html=1;aspect=fixed;rounded=0;strokeColor=none;strokeWidth=7;fillColor=#A71E6C;fontSize=14;fontColor=#FFFFFF;align=center;" parent="1" vertex="1">
          <mxGeometry x="1149" y="366.5" width="8" height="8" as="geometry" />
        </mxCell>
        <mxCell id="T21aQVliIUyU_0U-5JRh-102" value="" style="ellipse;whiteSpace=wrap;html=1;aspect=fixed;rounded=0;strokeColor=none;strokeWidth=7;fillColor=#A71E6C;fontSize=14;fontColor=#FFFFFF;align=center;" parent="1" vertex="1">
          <mxGeometry x="1134" y="349.5" width="8" height="8" as="geometry" />
        </mxCell>
        <mxCell id="T21aQVliIUyU_0U-5JRh-103" value="" style="ellipse;whiteSpace=wrap;html=1;aspect=fixed;rounded=0;strokeColor=none;strokeWidth=7;fillColor=#A71E6C;fontSize=14;fontColor=#FFFFFF;align=center;" parent="1" vertex="1">
          <mxGeometry x="1270" y="188.5" width="8" height="8" as="geometry" />
        </mxCell>
        <mxCell id="T21aQVliIUyU_0U-5JRh-104" value="" style="ellipse;whiteSpace=wrap;html=1;aspect=fixed;rounded=0;strokeColor=none;strokeWidth=7;fillColor=#A71E6C;fontSize=14;fontColor=#FFFFFF;align=center;" parent="1" vertex="1">
          <mxGeometry x="1294" y="202.5" width="8" height="8" as="geometry" />
        </mxCell>
        <mxCell id="T21aQVliIUyU_0U-5JRh-105" value="" style="ellipse;whiteSpace=wrap;html=1;aspect=fixed;rounded=0;strokeColor=none;strokeWidth=7;fillColor=#A71E6C;fontSize=14;fontColor=#FFFFFF;align=center;" parent="1" vertex="1">
          <mxGeometry x="1314" y="221.5" width="8" height="8" as="geometry" />
        </mxCell>
        <mxCell id="T21aQVliIUyU_0U-5JRh-106" value="" style="ellipse;whiteSpace=wrap;html=1;aspect=fixed;rounded=0;strokeColor=none;strokeWidth=7;fillColor=#A71E6C;fontSize=14;fontColor=#FFFFFF;align=center;" parent="1" vertex="1">
          <mxGeometry x="1329" y="243.5" width="8" height="8" as="geometry" />
        </mxCell>
        <mxCell id="T21aQVliIUyU_0U-5JRh-107" value="" style="ellipse;whiteSpace=wrap;html=1;aspect=fixed;rounded=0;strokeColor=none;strokeWidth=7;fillColor=#A71E6C;fontSize=14;fontColor=#FFFFFF;align=center;" parent="1" vertex="1">
          <mxGeometry x="1187" y="192.5" width="8" height="8" as="geometry" />
        </mxCell>
        <mxCell id="T21aQVliIUyU_0U-5JRh-108" value="" style="ellipse;whiteSpace=wrap;html=1;aspect=fixed;rounded=0;strokeColor=none;strokeWidth=7;fillColor=#A71E6C;fontSize=14;fontColor=#FFFFFF;align=center;" parent="1" vertex="1">
          <mxGeometry x="1163" y="205.5" width="8" height="8" as="geometry" />
        </mxCell>
        <mxCell id="T21aQVliIUyU_0U-5JRh-109" value="" style="ellipse;whiteSpace=wrap;html=1;aspect=fixed;rounded=0;strokeColor=none;strokeWidth=7;fillColor=#A71E6C;fontSize=14;fontColor=#FFFFFF;align=center;" parent="1" vertex="1">
          <mxGeometry x="1142" y="226.5" width="8" height="8" as="geometry" />
        </mxCell>
        <mxCell id="OaAuVJMLidD0WzkcKo5m-13" value="" style="edgeStyle=orthogonalEdgeStyle;rounded=0;orthogonalLoop=1;jettySize=auto;html=1;" edge="1" parent="1" source="T21aQVliIUyU_0U-5JRh-2" target="T21aQVliIUyU_0U-5JRh-1">
          <mxGeometry relative="1" as="geometry" />
        </mxCell>
        <mxCell id="T21aQVliIUyU_0U-5JRh-2" value="USER" style="aspect=fixed;perimeter=ellipsePerimeter;html=1;align=center;shadow=0;dashed=0;fontColor=#4277BB;labelBackgroundColor=#ffffff;fontSize=12;spacingTop=0;image;image=img/lib/ibm/blockchain/blockchain_developer.svg;direction=west;rotation=0;" parent="1" vertex="1">
          <mxGeometry x="1420" y="45.25" width="49.5" height="49.5" as="geometry" />
        </mxCell>
        <mxCell id="OaAuVJMLidD0WzkcKo5m-7" value="" style="endArrow=classic;startArrow=classic;html=1;rounded=0;" edge="1" parent="1">
          <mxGeometry width="50" height="50" relative="1" as="geometry">
            <mxPoint x="650" y="400" as="sourcePoint" />
            <mxPoint x="700" y="350" as="targetPoint" />
          </mxGeometry>
        </mxCell>
      </root>
    </mxGraphModel>
  </diagram>
</mxfile>
